# xmcd
# 
# Track frame offsets:
#     150
#     2642
#     23885
#     39148
#     57798
#     85120
#     94578
#     119361
#     132853
#     161614
#     180264
#     194200
# 
# Disc length: 2719
# 
# Revision: 2
# Processed by: cddbd v1.5.2PL0 Copyright (c) Steve Scherf et al.
# Submitted via: fre:ac v1.0.31
# 
DISCID=8c0a9d0c
DTITLE=Otis Redding - Live At The Whiskey A Go Go Disc 1
DYEAR=2016
DGENRE=R&B
TTITLE0=Introduction (Friday, April 8, 1966 - Set One)
TTITLE1=I Can't Turn You Loose (Friday, April 8, 1966 - Set One)
TTITLE2=Pain in My Heart (Friday, April 8, 1966 - Set One)
TTITLE3=Good to Me (Friday, April 8, 1966 - Set One)
TTITLE4=Just One More Day (Friday, April 8, 1966 - Set One)
TTITLE5=Mr. Pitiful (Friday, April 8, 1966 - Set One)
TTITLE6=(I Can't Get No) Satisfaction (Friday, April 8, 1966 - Set One)
TTITLE7=I'm Depending on You (Friday, April 8, 1966 - Set Two)
TTITLE8=I've Been Loving You Too Long (Friday, April 8, 1966 - Set Two)
TTITLE9=Good to Me (Friday, April 8, 1966 - Set Two)
TTITLE10=Security (Friday, April 8, 1966 - Set Two)
TTITLE11=Respect (Friday, April 8, 1966 - Set Two)
EXTD=
EXTT0=
EXTT1=
EXTT2=
EXTT3=
EXTT4=
EXTT5=
EXTT6=
EXTT7=
EXTT8=
EXTT9=
EXTT10=
EXTT11=
PLAYORDER=
